<?xml version="1.0" encoding="UTF-8"?>
<svg id="Layer_1" xmlns="http://www.w3.org/2000/svg" version="1.1" viewBox="0 0 1800 1800">
  <!-- Generator: Adobe Illustrator 29.1.0, SVG Export Plug-In . SVG Version: 2.1.0 Build 142)  -->
  <defs>
    <style>
      .st0 {
        fill: #fff;
      }
    </style>
  </defs>
  <path class="st0" d="M1600,1337.5c0,48.1-39.4,87.5-87.5,87.5H287.5c-48.1,0-87.5-39.4-87.5-87.5h0c0-48.1,39.4-87.5,87.5-87.5h1225c48.1,0,87.5,39.4,87.5,87.5h0Z"/>
  <path class="st0" d="M1600,900c0,48.1-39.4,87.5-87.5,87.5H287.5c-48.1,0-87.5-39.4-87.5-87.5h0c0-48.1,39.4-87.5,87.5-87.5h1225c48.1,0,87.5,39.4,87.5,87.5h0Z"/>
  <path class="st0" d="M1600,462.5c0,48.1-39.4,87.5-87.5,87.5H287.5c-48.1,0-87.5-39.4-87.5-87.5h0c0-48.1,39.4-87.5,87.5-87.5h1225c48.1,0,87.5,39.4,87.5,87.5h0Z"/>
</svg>