<?xml version="1.0" encoding="UTF-8"?>
<svg id="Layer_1" xmlns="http://www.w3.org/2000/svg" version="1.1" viewBox="0 0 96.23 77.48">
  <!-- Generator: Adobe Illustrator 29.1.0, SVG Export Plug-In . SVG Version: 2.1.0 Build 142)  -->
  <defs>
    <style>
      .st0, .st1 {
        fill: #65be6e;
      }

      .st2 {
        fill: #231f20;
      }

      .st3 {
        fill: #fff;
      }

      .st1 {
        stroke: #65be6e;
        stroke-miterlimit: 10;
        stroke-width: 1.8px;
      }

      .st4 {
        fill: #2583c6;
      }
    </style>
  </defs>
  <polygon class="st4" points="53.09 8.17 70.32 25.41 62.64 33.08 53.07 23.51 49.23 27.35 45.4 23.52 33.88 35.04 37.71 38.87 33.87 42.71 45.36 54.2 49.23 50.36 53.03 54.19 62.63 44.59 70.29 52.25 53.01 69.52 49.18 65.69 45.34 69.53 18.54 42.73 22.37 38.89 18.55 35.06 45.42 8.18 49.25 12.01 53.09 8.17"/>
  <path class="st2" d="M61.97,47.39"/>
  <path class="st2" d="M49.18,24.47"/>
  <path class="st0" d="M46.12,48.38c1.53-1.13,6.77-3.63,7.07-6.01.45-3.59-1.01-5.45-3.88-5.45-4.57,0-4.75,4.38-2.55,5.32,1.13.49,2.36.41,2.72.06.63-.63-.06-1.74-1.19-1.74-.47,0-1.47.73-1.47.73,0,0,.12-3.27,2.68-3.05,2.29.19,1.98,3.02,1.48,4.4-.97,2.66-6.37,6.86-4.86,5.74Z"/>
  <circle class="st0" cx="49.42" cy="31.52" r="2.19"/>
  <line class="st1" x1="69.74" y1="33.71" x2="69.74" y2="44.1"/>
  <line class="st1" x1="65.39" y1="33.71" x2="65.39" y2="44.1"/>
  <rect class="st3" x="15.89" y="57.81" width="62.69" height="12.73"/>
  <polygon class="st0" points="78.57 57.81 78.57 60.57 82.29 64.22 78.57 67.83 78.57 70.54 85.06 64.12 78.57 57.81"/>
  <polygon class="st0" points="15.89 70.54 15.89 67.78 12.16 64.14 15.89 60.53 15.89 57.81 9.39 64.23 15.89 70.54"/>
  <g>
    <path class="st4" d="M23.4,63.66v.9c0,.1-.04.19-.11.26-.07.07-.16.11-.26.11h-2.63v.22c0,.13.05.23.16.32l.22.18c.12.09.23.14.34.14h1.91c.1,0,.19.04.26.11s.11.16.11.26-.04.19-.11.26c-.08.07-.16.11-.26.11h-1.96c-.13,0-.27-.03-.41-.08-.14-.05-.25-.11-.32-.17l-.33-.29c-.1-.08-.19-.2-.26-.35s-.1-.28-.1-.41v-1.7c0-.1.04-.23.11-.39s.17-.29.29-.39l.31-.24c.2-.17.43-.25.68-.25h1.05c.26,0,.51.11.74.33l.28.27c.2.18.3.45.3.81ZM20.41,63.6v.58h2.26v-.52c0-.14-.04-.24-.13-.32l-.22-.19c-.11-.09-.21-.14-.3-.14h-.93c-.12,0-.22.04-.31.12l-.22.18c-.1.07-.15.17-.15.29Z"/>
    <path class="st4" d="M27.68,66.53h-.63c-.26,0-.48-.09-.67-.28-.19-.18-.28-.41-.28-.66v-2.03h-.32c-.09,0-.16-.03-.22-.09-.06-.06-.09-.13-.09-.22s.03-.16.09-.22.13-.09.22-.09h.33v-.77c0-.09.03-.16.09-.22.06-.06.13-.09.22-.09.08,0,.15.03.22.09.06.06.1.14.1.22v.77h1.26c.08,0,.16.03.22.09s.09.14.09.22-.03.16-.09.22-.14.09-.22.09h-1.27v2.03c0,.08.03.16.09.22.06.06.14.09.23.09h.61c.17,0,.28-.09.33-.27.05-.18.16-.27.32-.27.09,0,.17.03.23.09.06.06.09.14.09.23,0,.19-.09.38-.27.56s-.4.28-.68.28Z"/>
    <path class="st4" d="M30.5,66.22v-4.33c0-.08.03-.16.09-.22.06-.06.13-.09.22-.09s.16.03.22.09.09.13.09.22v1.58l.5-.33c.23-.14.43-.22.61-.22h.39c.26,0,.48.09.66.27.18.18.28.4.29.67l.08,2.35c0,.09-.03.16-.09.22s-.14.09-.22.09-.16-.03-.22-.09c-.06-.06-.09-.14-.09-.22l-.08-2.35c0-.08-.03-.16-.1-.22s-.14-.09-.22-.09h-.35c-.08,0-.17.03-.26.09l-.89.58v1.99c0,.09-.03.16-.09.22-.06.06-.13.09-.22.09s-.16-.03-.22-.09c-.06-.06-.09-.13-.09-.22Z"/>
    <path class="st4" d="M36.46,64.27h1.23c.07,0,.16.01.29.04v-.44c0-.09-.04-.16-.1-.22-.06-.06-.14-.09-.22-.09h-1.19c-.08,0-.16-.03-.22-.09-.06-.06-.09-.14-.09-.22s.03-.16.09-.22c.06-.06.14-.09.22-.09h1.19c.26,0,.48.09.66.27.18.18.28.4.29.67l.08,2.35c0,.09-.03.16-.09.22s-.14.09-.22.09c-.09,0-.17-.03-.23-.09-.06-.06-.09-.13-.09-.22l-.53.31h-1.06c-.26,0-.49-.09-.67-.28-.18-.18-.28-.41-.28-.67v-.37c0-.26.09-.48.28-.67.19-.19.41-.28.67-.28ZM38.03,65.49l-.02-.26c0-.09-.03-.16-.09-.22-.06-.06-.13-.09-.22-.09h-1.24c-.09,0-.16.03-.22.09s-.09.13-.09.22v.35c0,.08.03.16.09.22.06.06.14.09.22.09h.88l.68-.4Z"/>
    <path class="st4" d="M42.04,63.66l-.86.56v2c0,.08-.03.16-.09.22-.06.06-.14.09-.22.09s-.16-.03-.22-.09-.09-.14-.09-.22v-2.97c0-.09.03-.16.09-.23.06-.06.13-.09.22-.09s.16.03.22.09c.06.06.09.14.09.23v.21l.57-.35c.19-.12.41-.18.65-.18h.29c.25,0,.46.09.65.26.18.18.28.39.29.65l.09,2.38c0,.08-.03.16-.09.22s-.14.09-.22.09c-.08,0-.15-.03-.22-.08s-.09-.13-.1-.23l-.09-2.34c0-.22-.12-.33-.34-.33h-.31c-.09,0-.2.04-.31.11Z"/>
    <path class="st4" d="M47.77,65.79h1.34c.1,0,.19.04.27.11s.11.16.11.26-.04.19-.11.26c-.08.07-.16.11-.27.11h-1.39c-.18,0-.36-.06-.55-.17s-.32-.24-.39-.38l-.86-1.66c-.12-.24-.17-.48-.17-.74,0-.28.05-.52.16-.72l.87-1.64c.08-.15.21-.29.39-.41.17-.12.34-.18.5-.18h1.47c.1,0,.19.04.26.11.07.07.11.16.11.26s-.04.19-.11.27c-.07.08-.16.11-.26.11h-1.42c-.12,0-.21.07-.29.21l-.83,1.54c-.07.12-.1.26-.1.43,0,.17.03.33.11.46l.79,1.51c.07.16.19.23.36.23Z"/>
    <path class="st4" d="M52.48,64.27h1.23c.07,0,.16.01.29.04v-.44c0-.09-.04-.16-.1-.22-.06-.06-.14-.09-.22-.09h-1.19c-.08,0-.16-.03-.22-.09-.06-.06-.09-.14-.09-.22s.03-.16.09-.22c.06-.06.14-.09.22-.09h1.19c.26,0,.48.09.66.27.18.18.28.4.29.67l.08,2.35c0,.09-.03.16-.09.22s-.14.09-.22.09c-.09,0-.17-.03-.23-.09-.06-.06-.09-.13-.09-.22l-.53.31h-1.06c-.26,0-.49-.09-.67-.28-.18-.18-.28-.41-.28-.67v-.37c0-.26.09-.48.28-.67.19-.19.41-.28.67-.28ZM54.05,65.49l-.02-.26c0-.09-.03-.16-.09-.22-.06-.06-.13-.09-.22-.09h-1.24c-.09,0-.16.03-.22.09s-.09.13-.09.22v.35c0,.08.03.16.09.22.06.06.14.09.22.09h.88l.68-.4Z"/>
    <path class="st4" d="M56.57,66.22v-2.97c0-.09.03-.16.09-.23.06-.06.13-.09.22-.09s.16.03.22.09c.06.06.09.14.09.23v.39l.51-.44c.21-.18.42-.27.62-.27h.46c.26,0,.48.09.66.28s.28.41.28.66v.17c0,.09-.03.17-.09.23s-.13.09-.22.09-.16-.03-.22-.09c-.06-.06-.09-.13-.09-.22v-.18c0-.09-.03-.16-.09-.22-.06-.06-.13-.09-.22-.09h-.41c-.09,0-.18.05-.29.14l-.89.77v1.75c0,.09-.03.16-.09.22-.06.06-.14.09-.22.09s-.16-.03-.22-.09c-.06-.06-.09-.13-.09-.22Z"/>
    <path class="st4" d="M62.47,62.93h1.44c.22,0,.42.07.59.2.17.13.26.26.26.39,0,.09-.03.16-.09.22-.06.06-.13.09-.21.09-.1,0-.19-.04-.27-.13-.08-.09-.17-.13-.26-.13h-1.42c-.14,0-.21.06-.21.17,0,.08.05.14.14.18l1.67.74c.17.07.31.19.42.36s.16.35.16.55c0,.27-.1.5-.29.68-.19.19-.41.28-.65.28h-1.27c-.22,0-.42-.07-.61-.2-.19-.13-.28-.26-.28-.38,0-.08.03-.15.09-.22.06-.06.14-.09.24-.09.08,0,.16.04.26.13.09.09.22.13.39.13h1.17c.09,0,.17-.04.23-.11.06-.07.09-.15.09-.24,0-.14-.07-.24-.21-.31l-1.68-.76c-.16-.07-.29-.18-.37-.31s-.13-.28-.13-.42c0-.22.08-.42.23-.58.16-.16.35-.25.58-.25Z"/>
    <path class="st4" d="M69.78,64.06v1.32c0,.28-.13.54-.4.78-.26.24-.54.36-.82.36h-.73c-.29,0-.56-.12-.82-.36-.26-.24-.39-.5-.39-.77v-1.32c0-.27.13-.53.38-.77.25-.24.53-.36.83-.36h.73c.28,0,.55.11.82.35.26.24.4.5.4.79ZM67.25,64.09v1.27c0,.11.04.21.12.27l.23.2c.05.04.13.07.22.07h.73c.11,0,.2-.04.29-.12l.19-.17c.08-.06.12-.14.12-.25v-1.27c0-.12-.04-.22-.12-.28l-.22-.18c-.07-.06-.16-.09-.26-.09h-.65c-.14,0-.25.03-.33.1l-.21.18c-.08.06-.12.15-.12.25Z"/>
    <path class="st4" d="M73.13,63.66l-.86.56v2c0,.08-.03.16-.09.22-.06.06-.14.09-.22.09s-.16-.03-.22-.09-.09-.14-.09-.22v-2.97c0-.09.03-.16.09-.23.06-.06.13-.09.22-.09s.16.03.22.09c.06.06.09.14.09.23v.21l.57-.35c.19-.12.41-.18.65-.18h.29c.25,0,.46.09.65.26.18.18.28.39.29.65l.09,2.38c0,.08-.03.16-.09.22s-.14.09-.22.09c-.08,0-.15-.03-.22-.08s-.09-.13-.1-.23l-.09-2.34c0-.22-.12-.33-.34-.33h-.31c-.09,0-.2.04-.31.11Z"/>
  </g>
</svg>