<?xml version="1.0" encoding="UTF-8"?>
<svg id="Layer_1" xmlns="http://www.w3.org/2000/svg" version="1.1" viewBox="0 0 224.48 104.08">
  <!-- Generator: Adobe Illustrator 29.1.0, SVG Export Plug-In . SVG Version: 2.1.0 Build 142)  -->
  <defs>
    <style>
      .st0, .st1, .st2 {
        fill: #65be6e;
      }

      .st3 {
        fill: #231f20;
      }

      .st4 {
        fill: #fff;
      }

      .st1 {
        stroke-width: 3.79px;
      }

      .st1, .st2 {
        stroke: #65be6e;
        stroke-miterlimit: 10;
      }

      .st5 {
        fill: #415ea5;
      }

      .st2 {
        stroke-width: 3px;
      }

      .st6 {
        fill: #28388e;
      }
    </style>
  </defs>
  <line class="st1" x1="217.13" y1="41.68" x2="217.13" y2="63.65"/>
  <line class="st1" x1="207.94" y1="41.68" x2="207.94" y2="63.65"/>
  <polygon class="st5" points="86.58 75.16 57.67 104.07 51.27 97.66 44.84 104.08 0 59.24 6.42 52.82 .02 46.41 44.98 1.45 51.39 7.85 57.81 1.43 86.64 30.26 73.79 43.1 57.78 27.09 51.35 33.51 44.95 27.11 25.68 46.38 32.08 52.78 25.66 59.2 44.88 78.42 51.35 72 57.71 78.41 73.77 62.35 86.58 75.16"/>
  <path class="st3" d="M72.66,67.04"/>
  <path class="st3" d="M51.27,28.69"/>
  <path class="st0" d="M46.15,68.69c2.56-1.89,11.33-6.08,11.83-10.05.75-6.01-1.7-9.12-6.49-9.12-7.64,0-7.94,7.32-4.27,8.9,1.89.81,3.95.69,4.55.1,1.05-1.05-.1-2.91-1.99-2.91-.79,0-2.45,1.22-2.45,1.22,0,0,.2-5.47,4.48-5.11,3.84.32,3.32,5.05,2.47,7.36-1.63,4.45-10.65,11.48-8.13,9.61Z"/>
  <circle class="st0" cx="51.67" cy="40.49" r="3.66"/>
  <line class="st2" x1="183.66" y1="44.15" x2="183.66" y2="61.54"/>
  <line class="st2" x1="176.38" y1="44.15" x2="176.38" y2="61.54"/>
  <rect class="st4" x="85.48" y="40.49" width="104.87" height="23.16"/>
  <polygon class="st0" points="190.35 41.68 190.35 46.29 196.58 52.4 190.35 58.43 190.35 62.98 201.22 52.23 190.35 41.68"/>
  <polygon class="st0" points="85.48 62.98 85.48 58.36 79.26 52.26 85.48 46.22 85.48 41.68 74.62 52.42 85.48 62.98"/>
  <g>
    <path class="st6" d="M98.06,51.46v1.5c0,.17-.06.31-.19.44-.12.12-.27.19-.44.19h-4.4v.36c0,.21.09.39.27.54l.36.3c.2.15.39.23.56.23h3.2c.17,0,.31.06.44.18s.19.27.19.44-.06.31-.19.44c-.13.12-.27.19-.43.19h-3.28c-.22,0-.45-.05-.69-.14-.24-.09-.42-.19-.53-.29l-.56-.49c-.17-.14-.32-.33-.43-.58s-.17-.47-.17-.68v-2.85c0-.16.06-.38.19-.66s.29-.49.48-.64l.52-.41c.34-.28.72-.41,1.13-.41h1.75c.44,0,.85.18,1.24.55l.47.44c.34.3.5.75.5,1.35ZM93.05,51.36v.96h3.78v-.87c0-.23-.07-.41-.21-.53l-.36-.32c-.19-.15-.36-.23-.5-.23h-1.56c-.19,0-.37.07-.53.2l-.36.3c-.16.12-.24.28-.24.48Z"/>
    <path class="st6" d="M105.21,56.26h-1.05c-.43,0-.8-.15-1.12-.46-.31-.31-.47-.68-.47-1.11v-3.4h-.54c-.15,0-.27-.05-.37-.15-.1-.1-.15-.22-.15-.37s.05-.27.15-.37.23-.15.37-.15h.55v-1.29c0-.15.05-.27.15-.37.1-.1.23-.15.37-.15.14,0,.26.05.36.16.11.1.16.23.16.37v1.29h2.11c.14,0,.26.05.37.16s.16.23.16.37-.05.27-.16.37-.23.15-.37.15h-2.12v3.4c0,.14.05.26.16.37.11.1.23.16.38.16h1.02c.28,0,.46-.15.56-.45.09-.3.27-.45.53-.45.15,0,.28.05.38.15.1.1.15.23.15.38,0,.32-.15.63-.45.95s-.68.47-1.14.47Z"/>
    <path class="st6" d="M109.93,55.74v-7.24c0-.14.05-.26.15-.36.1-.1.23-.15.37-.15s.27.05.37.15.15.23.15.37v2.65l.84-.55c.38-.24.72-.36,1.02-.36h.65c.43,0,.8.15,1.1.46.31.31.47.68.48,1.11l.13,3.92c0,.15-.05.27-.15.37s-.23.15-.37.15-.27-.05-.37-.16c-.1-.11-.15-.23-.16-.37l-.13-3.94c0-.14-.06-.26-.16-.37s-.23-.16-.37-.16h-.59c-.13,0-.28.05-.44.16l-1.49.97v3.33c0,.15-.05.27-.15.37-.1.1-.23.15-.37.15s-.27-.05-.37-.15c-.1-.1-.15-.23-.15-.37Z"/>
    <path class="st6" d="M119.91,52.48h2.06c.11,0,.27.03.49.07v-.74c-.01-.15-.06-.27-.17-.37-.1-.1-.23-.15-.37-.15h-1.99c-.14,0-.26-.05-.37-.16-.1-.1-.16-.23-.16-.37s.05-.27.15-.37c.1-.1.23-.15.37-.15h1.99c.43,0,.8.15,1.11.46.31.3.47.68.48,1.12l.13,3.92c0,.15-.05.27-.16.37s-.23.15-.37.15c-.15,0-.28-.05-.38-.15-.1-.1-.16-.23-.16-.37l-.89.52h-1.77c-.44,0-.82-.15-1.12-.46-.31-.31-.46-.68-.46-1.12v-.61c0-.44.16-.81.47-1.12.31-.31.68-.46,1.12-.46ZM122.53,54.52l-.03-.44c0-.15-.06-.27-.16-.37-.1-.1-.22-.15-.37-.15h-2.07c-.15,0-.27.05-.37.15s-.15.23-.15.37v.59c0,.14.05.26.16.37.1.1.23.16.37.16h1.48l1.14-.67Z"/>
    <path class="st6" d="M129.23,51.46l-1.43.93v3.35c0,.14-.05.26-.16.37-.1.1-.23.16-.37.16s-.26-.05-.37-.16-.16-.23-.16-.37v-4.97c0-.15.05-.27.15-.38.1-.11.23-.16.37-.16s.26.05.37.16c.1.11.16.23.16.38v.35l.96-.58c.32-.2.68-.31,1.09-.31h.49c.42,0,.78.15,1.08.44.3.3.46.66.48,1.09l.14,3.97c0,.14-.05.26-.15.37s-.23.16-.37.16c-.14,0-.26-.05-.36-.14s-.16-.22-.16-.38l-.16-3.91c-.01-.37-.2-.55-.58-.55h-.51c-.16,0-.33.06-.51.18Z"/>
    <path class="st6" d="M138.82,55.02h2.25c.17,0,.32.06.45.18s.19.27.19.44-.06.32-.19.44c-.13.12-.28.18-.45.18h-2.33c-.3,0-.6-.09-.92-.28s-.54-.4-.66-.63l-1.44-2.78c-.19-.4-.29-.81-.29-1.23,0-.46.09-.87.27-1.21l1.45-2.75c.14-.26.35-.48.64-.68.29-.2.57-.29.84-.29h2.46c.17,0,.32.06.44.19.12.12.18.27.18.44s-.06.32-.18.45c-.12.13-.27.19-.44.19h-2.37c-.2,0-.36.12-.48.35l-1.38,2.58c-.11.2-.16.44-.16.72,0,.29.06.55.18.77l1.32,2.53c.12.26.33.39.61.39Z"/>
    <path class="st6" d="M146.71,52.48h2.06c.11,0,.27.03.49.07v-.74c-.01-.15-.06-.27-.17-.37-.1-.1-.23-.15-.37-.15h-1.99c-.14,0-.26-.05-.37-.16-.1-.1-.16-.23-.16-.37s.05-.27.15-.37c.1-.1.23-.15.37-.15h1.99c.43,0,.8.15,1.11.46.31.3.47.68.48,1.12l.13,3.92c0,.15-.05.27-.16.37s-.23.15-.37.15c-.15,0-.28-.05-.38-.15-.1-.1-.16-.23-.16-.37l-.89.52h-1.77c-.44,0-.82-.15-1.12-.46-.31-.31-.46-.68-.46-1.12v-.61c0-.44.16-.81.47-1.12.31-.31.68-.46,1.12-.46ZM149.33,54.52l-.03-.44c0-.15-.06-.27-.16-.37-.1-.1-.22-.15-.37-.15h-2.07c-.15,0-.27.05-.37.15s-.15.23-.15.37v.59c0,.14.05.26.16.37.1.1.23.16.37.16h1.48l1.14-.67Z"/>
    <path class="st6" d="M153.55,55.74v-4.97c0-.15.05-.27.15-.38.1-.11.23-.16.37-.16s.27.05.37.16c.1.1.15.23.15.38v.66l.85-.73c.35-.3.7-.45,1.04-.45h.77c.43,0,.8.15,1.11.46s.46.68.46,1.11v.28c0,.15-.05.28-.15.38s-.23.16-.37.16-.27-.05-.37-.15c-.1-.1-.15-.23-.15-.37v-.29c0-.15-.05-.27-.15-.37-.1-.1-.23-.15-.37-.15h-.68c-.15,0-.31.08-.49.23l-1.49,1.29v2.93c0,.15-.05.27-.16.37-.1.1-.23.15-.37.15s-.27-.05-.37-.15c-.1-.1-.15-.23-.15-.37Z"/>
    <path class="st6" d="M163.43,50.24h2.4c.37,0,.71.11.99.33.29.22.43.44.43.65,0,.15-.05.27-.16.37-.11.1-.22.14-.35.14-.17,0-.32-.07-.46-.22-.14-.15-.28-.22-.43-.22h-2.37c-.23,0-.35.1-.35.29,0,.14.08.24.23.31l2.79,1.24c.28.12.51.33.7.6s.27.58.27.92c0,.45-.16.83-.48,1.14-.32.31-.68.47-1.08.47h-2.12c-.37,0-.71-.11-1.02-.33-.31-.22-.47-.43-.47-.64,0-.14.05-.26.15-.36.1-.11.23-.16.4-.16.13,0,.28.07.43.22.15.15.37.22.66.22h1.95c.15,0,.28-.06.39-.18.1-.12.16-.25.16-.41,0-.24-.12-.41-.35-.51l-2.81-1.27c-.27-.12-.48-.3-.62-.52s-.22-.46-.22-.7c0-.37.13-.7.39-.97.26-.27.58-.41.96-.41Z"/>
    <path class="st6" d="M175.64,52.13v2.21c0,.47-.22.9-.66,1.3-.44.4-.9.6-1.37.6h-1.23c-.48,0-.94-.2-1.37-.61-.44-.41-.66-.84-.66-1.29v-2.21c0-.46.21-.89.64-1.29.43-.41.89-.61,1.39-.61h1.23c.47,0,.93.19,1.37.59.44.4.66.84.66,1.32ZM171.41,52.18v2.12c0,.19.07.34.21.46l.39.34c.09.07.21.11.37.11h1.22c.18,0,.34-.06.49-.19l.32-.28c.13-.1.19-.24.19-.42v-2.12c0-.21-.06-.36-.19-.46l-.37-.29c-.12-.1-.27-.16-.44-.16h-1.09c-.24,0-.42.06-.55.17l-.36.31c-.13.11-.19.25-.19.42Z"/>
    <path class="st6" d="M181.25,51.46l-1.43.93v3.35c0,.14-.05.26-.16.37-.1.1-.23.16-.37.16s-.26-.05-.37-.16-.16-.23-.16-.37v-4.97c0-.15.05-.27.15-.38.1-.11.23-.16.37-.16s.26.05.37.16c.1.11.16.23.16.38v.35l.96-.58c.32-.2.68-.31,1.09-.31h.49c.42,0,.78.15,1.08.44.3.3.46.66.48,1.09l.14,3.97c0,.14-.05.26-.15.37s-.23.16-.37.16c-.14,0-.26-.05-.36-.14s-.16-.22-.16-.38l-.16-3.91c-.01-.37-.2-.55-.58-.55h-.51c-.16,0-.33.06-.51.18Z"/>
  </g>
</svg>