<?xml version="1.0" encoding="UTF-8"?>
<svg id="youtube" xmlns="http://www.w3.org/2000/svg" version="1.1" viewBox="0 0 2500 1756">
  <!-- Generator: Adobe Illustrator 29.1.0, SVG Export Plug-In . SVG Version: 2.1.0 Build 142)  -->
  <defs>
    <style>
      .st0 {
        fill: none;
      }

      .st1 {
        fill: #5bc86d;
      }
    </style>
  </defs>
  <path class="st0" d="M1665.3,852.4c-229.2-122.5-448.7-235.1-673.1-352.7v703.4c236.1-128.3,484.9-245.9,674-350.7h-1Z"/>
  <path class="st1" d="M1035.4,1753.7c-476.1-8.8-638.7-16.7-738.7-37.2-67.6-13.7-126.4-44.1-169.5-88.1-33.3-33.3-59.8-84.2-80.3-154.8-17.6-58.8-24.5-107.7-34.3-227.3-15-269.8-18.6-490.3,0-736.7,15.3-136.1,22.7-297.6,124.4-391.9,48-44.1,103.8-72.5,166.6-84.2C401.5,14.8,818.9.1,1250.9.1s849.4,14.7,947.4,33.3c78.3,14.7,151.8,58.8,194.9,115.6,92.8,145.9,94.4,327.4,103.8,469.3,3.9,67.6,3.9,451.6,0,519.2-14.7,224.3-26.4,303.7-59.7,385.9-20.6,51.9-38.2,79.4-68.6,109.7-47.7,46.8-108.6,77.8-174.4,89.1-412,31-761.9,37.7-1159,31.4h0ZM1666.3,852.4c-229.2-122.5-448.7-236.1-673.1-353.7v703.4c236.1-128.3,485-245.9,674-350.7l-1,1h0Z"/>
</svg>